PathFileType	4	(X/Y/Z)	D:\Share\Shared_Data\Ergonomics\Sit To Stand Pertubation\S0\Perturbed STS.trc
DataRate	CameraRate	NumFrames	NumMarkers	Units	OrigDataRate	OrigDataStartFrame	OrigNumFrames	
100	100	13	18	m	100	8889	221
Frame#	Time	R_Heel			R_ASIS			R_Pelvis			V_Sacral			L_Pelvis			L_ASIS			Clavical			R_Acromium			L_Acromium			Sternum			Torso			R_Thigh_Med			R_Thigh_Lat			R_Thigh			R_Shank_Med			R_Shank_Lat			R_Shank			R_Toe			
		X1	Y1	Z1	X2	Y2	Z2	X3	Y3	Z3	X4	Y4	Z4	X5	Y5	Z5	X6	Y6	Z6	X7	Y7	Z7	X8	Y8	Z8	X9	Y9	Z9	X10	Y10	Z10	X11	Y11	Z11	X12	Y12	Z12	X13	Y13	Z13	X14	Y14	Z14	X15	Y15	Z15	X16	Y16	Z16	X17	Y17	Z17	X18	Y18	Z18	

8889	45.23	0.15998491	0.041481312	0.12060254	0.35946597	1.0073043	0.15023695	0.23466138	1.0224991	0.19027536	0.11454961	1.0164422	-0.037649403	0.25972476	1.0041957	-0.21598903	0.37451941	0.98769128	-0.16762079	0.35302969	1.4477252	-0.019645329	0.26185471	1.5057465	0.11969175	0.25858963	1.5073427	-0.1728792	0.39258386	1.3571842	-0.035096447	0.36060956	1.3999941	-0.14291428	0.27200677	0.49801086	0.026459517	0.27356143	0.52186005	0.15291862	0.36252792	0.64731464	0.086896515	0.25488109	0.10325195	0.07528714	0.19717421	0.085880959	0.16271646	0.22379404	0.32028934	0.17776787	0.38544513	0.046068233	0.11413185
8890	45.24	0.16004042	0.041552174	0.12051485	0.35988766	1.0073147	0.15011307	0.23501128	1.0223934	0.19007396	0.11506712	1.016237	-0.037883957	0.26029141	1.0041274	-0.21615895	0.37510037	0.98772412	-0.16778268	0.35298242	1.4477224	-0.019619421	0.26187085	1.5056395	0.11981632	0.25834296	1.5072039	-0.17279306	0.39259344	1.3572087	-0.035122066	0.36054517	1.4000027	-0.14288084	0.27228598	0.49801331	0.026331669	0.27379404	0.52186395	0.15276587	0.36287216	0.64731012	0.086819527	0.25494972	0.10325031	0.075222076	0.19721825	0.085938423	0.16262518	0.22392508	0.3203335	0.17763402	0.38550122	0.046046837	0.11416096
8891	45.25	0.16009761	0.041624935	0.12041957	0.36026584	1.0073279	0.14998662	0.23530533	1.0222811	0.18986496	0.11553864	1.0160504	-0.03813353	0.26081665	1.0040681	-0.21633318	0.37563834	0.98776483	-0.16794653	0.35294751	1.4477308	-0.019588676	0.26189172	1.5055746	0.11992765	0.25813666	1.5070988	-0.17269882	0.39260464	1.3572419	-0.035137466	0.36049411	1.4000269	-0.142839	0.27266714	0.49800519	0.026191683	0.27411453	0.52185864	0.15259488	0.36327859	0.64732239	0.086733826	0.25502292	0.10323669	0.075144615	0.19727003	0.085998741	0.16252719	0.22411662	0.32036984	0.17748334	0.38556311	0.046024452	0.11418327
8892	45.26	0.16015398	0.041696724	0.12031977	0.36060379	1.0073428	0.14985736	0.23554538	1.022165	0.18965007	0.11597002	1.01588	-0.038396946	0.26130728	1.0040196	-0.2165143	0.37613724	0.98781293	-0.16811086	0.35291873	1.4477483	-0.019552254	0.26191272	1.5055446	0.12002753	0.25796548	1.5070238	-0.17259865	0.39261847	1.3572853	-0.035142147	0.36045615	1.4000671	-0.14279065	0.27312952	0.49798682	0.026041803	0.27450653	0.52184521	0.15241	0.36373508	0.64734534	0.086639656	0.25509575	0.10321061	0.075057495	0.19732881	0.086060333	0.16242706	0.22435524	0.32039813	0.17732005	0.38562833	0.046001003	0.11419973
8893	45.27	0.1602072	0.041764938	0.12021917	0.36090488	1.0073571	0.14972488	0.23573578	1.0220477	0.18943118	0.11636644	1.0157238	-0.038671146	0.26176828	1.0039838	-0.2167049	0.37659958	0.98786688	-0.16827451	0.35289169	1.447772	-0.019510218	0.26193173	1.5055404	0.12011777	0.25782578	1.506974	-0.17249648	0.39263562	1.3573368	-0.035136864	0.36043106	1.4001216	-0.14273827	0.2736507	0.49795935	0.025884016	0.27495242	0.52182458	0.15221629	0.36422537	0.64737225	0.08653698	0.25516423	0.10317171	0.074962769	0.19739459	0.086121712	0.16232867	0.22462872	0.32041843	0.1771485	0.38569437	0.045976616	0.11421125
8894	45.28	0.16025549	0.04182774	0.12012149	0.3611731	1.0073685	0.1495891	0.23588521	1.0219305	0.18920996	0.11673257	1.0155802	-0.038952225	0.2622023	1.0039626	-0.21690651	0.37702686	0.98792432	-0.16843629	0.35286523	1.4477985	-0.019463766	0.26194907	1.5055516	0.12020004	0.25771552	1.5069441	-0.17239693	0.3926564	1.3573925	-0.035123428	0.36041895	1.4001853	-0.14268463	0.27420886	0.4979245	0.025720488	0.27543512	0.5217973	0.15201901	0.36473227	0.64739661	0.086424393	0.2552267	0.10312086	0.074861931	0.19746735	0.086181602	0.16223422	0.22492712	0.32043134	0.17697301	0.38575903	0.045951763	0.1142188
8895	45.29	0.16029765	0.041884007	0.12002997	0.36141296	1.0073741	0.14945001	0.23600673	1.0218141	0.18898808	0.11707249	1.0154473	-0.039236084	0.26260904	1.003957	-0.21711897	0.3774198	0.98798242	-0.16859523	0.35284195	1.4478247	-0.019415125	0.26196628	1.5055676	0.12027563	0.25763339	1.5069287	-0.17230438	0.39268091	1.3574474	-0.03510437	0.36041919	1.4002524	-0.14263245	0.27478415	0.49788379	0.025553865	0.27593964	0.52176379	0.15182298	0.3652406	0.64741315	0.086299225	0.25528436	0.1030612	0.074756706	0.1975463	0.086239105	0.16214432	0.22524294	0.32043774	0.17679764	0.38582062	0.045926991	0.11422304
8896	45.3	0.16033324	0.04193309	0.11994696	0.36162976	1.0073719	0.149308	0.23611488	1.0216987	0.1887675	0.1173891	1.0153246	-0.039518764	0.26298703	1.0039661	-0.21733994	0.37777869	0.9880379	-0.16875079	0.35282617	1.4478481	-0.019367054	0.26198563	1.5055795	0.12034544	0.25757797	1.506923	-0.17222217	0.39270868	1.3574961	-0.03508263	0.36043057	1.4003167	-0.14258415	0.27535849	0.49783789	0.025387053	0.27645294	0.5217243	0.1516324	0.36573874	0.64741699	0.086158653	0.25534013	0.1029976	0.074649536	0.19762961	0.086293488	0.16205919	0.22557016	0.3204386	0.17662619	0.38587802	0.045902695	0.11422427
8897	45.31	0.16036255	0.041974854	0.11987379	0.36182867	1.0073595	0.14916348	0.23622226	1.0215836	0.18855051	0.11768361	1.0152115	-0.039796688	0.26333469	1.0039875	-0.21756566	0.37810324	0.98808765	-0.16890337	0.35282196	1.4478665	-0.019322199	0.26200888	1.5055791	0.1204098	0.25754761	1.5069232	-0.17215247	0.39273914	1.3575344	-0.035061218	0.36045111	1.4003716	-0.14254176	0.2759162	0.49778665	0.025222672	0.2769639	0.52167889	0.15145016	0.3662182	0.64740491	0.086001266	0.2553963	0.10293475	0.074543213	0.19771423	0.086344009	0.16197943	0.22590361	0.32043442	0.17646176	0.3859306	0.045879185	0.11422238
8898	45.32	0.16038637	0.042009773	0.11981068	0.36201431	1.007336	0.14901701	0.23633736	1.0214677	0.18833946	0.11795556	1.0151077	-0.040066963	0.2636514	1.0040178	-0.21779248	0.37839355	0.98812933	-0.16905428	0.35283139	1.4478773	-0.019282684	0.2620372	1.5055627	0.12046851	0.25754037	1.5069261	-0.17209604	0.39277179	1.3575583	-0.035043026	0.36047861	1.4004132	-0.14250687	0.27644492	0.49772986	0.025062351	0.27746384	0.52162836	0.15127785	0.36667291	0.64737524	0.085828278	0.2554529	0.10287564	0.074440193	0.19779642	0.086390015	0.16190636	0.2262383	0.32042584	0.17630644	0.38597815	0.045856907	0.11421708
8899	45.33	0.16040578	0.042038898	0.11975682	0.36218976	1.0073012	0.14886893	0.23646407	1.0213505	0.18813667	0.11820325	1.0150123	-0.040327721	0.26393677	1.0040525	-0.21801726	0.37865042	0.98816162	-0.16920558	0.35285547	1.4478788	-0.019250078	0.26207123	1.5055287	0.12052087	0.25755435	1.5069307	-0.17205254	0.39280606	1.357566	-0.035030788	0.36051138	1.4004391	-0.14248048	0.27693674	0.49766852	0.024906397	0.27794672	0.52157379	0.15111528	0.36709918	0.64733038	0.085643417	0.25550798	0.10282135	0.074342247	0.19787305	0.08643132	0.16184135	0.22656929	0.32041354	0.17616133	0.386021	0.045836388	0.11420821
8900	45.34	0.16042166	0.042063606	0.11971059	0.36235641	1.0072567	0.14871941	0.23660158	1.021232	0.187944	0.1184242	1.0149238	-0.040577839	0.26418988	1.0040864	-0.21823732	0.37887473	0.98818414	-0.16935938	0.35289453	1.4478702	-0.019225513	0.2621113	1.5054773	0.12056578	0.25758801	1.506936	-0.17202087	0.3928414	1.3575559	-0.035026943	0.36054892	1.4004492	-0.14246318	0.27738785	0.49760434	0.024754225	0.27840833	0.52151648	0.15096129	0.36749628	0.6472782	0.08545179	0.25555873	0.10277156	0.074250305	0.19794241	0.086468254	0.16178546	0.2268923	0.32039874	0.17602698	0.38605948	0.045818085	0.11419604
8901	45.35	0.16043483	0.042085281	0.1196702	0.36251385	1.0072042	0.14856819	0.23674562	1.0211133	0.18776259	0.11861552	1.0148406	-0.040816418	0.26440909	1.0041155	-0.21845023	0.37906671	0.98819745	-0.16951724	0.35294946	1.4478514	-0.019209755	0.26215805	1.5054116	0.12060196	0.25764038	1.5069421	-0.17199985	0.39287738	1.3575278	-0.035033455	0.36059174	1.4004447	-0.14245515	0.27779694	0.49753983	0.024605091	0.27884573	0.52145807	0.15081429	0.36786572	0.64722913	0.085257553	0.25560298	0.10272535	0.074164482	0.19800435	0.086501511	0.16173907	0.2272038	0.32038284	0.17590334	0.38609445	0.045802269	0.11418127
